Coordinates
version=1
nRows=13
nColumns=34
inDegrees=yes

Units are S.I. units (second, meters, Newtons, ...)
Angles are in degrees.

endheader
time	pelvis_tilt	pelvis_list	pelvis_rotation	pelvis_tx	pelvis_ty	pelvis_tz	hip_flexion_r	hip_adduction_r	hip_rotation_r	knee_angle_r	ankle_angle_r	subtalar_angle_r	mtp_angle_r	hip_flexion_l	hip_adduction_l	hip_rotation_l	knee_angle_l	socket_flexion	socket_adduction	socket_rotation	socket_tx	socket_ty	socket_tz	pros_ankle_rx	pros_ankle_ry	pros_ankle_rz	pros_ankle_tx	pros_ankle_ty	pros_ankle_tz	foot_flex	lumbar_extension	lumbar_bending	lumbar_rotation
      0.60000000	     -5.61204377	      0.96611972	      4.93046271	     -0.02718074	      1.01352976	      0.35382015	     28.94312601	     -2.49557666	     -1.93120510	      1.24496044	     11.88555888	      0.82091573	      1.07270386	     -5.62369040	      1.69661066	      3.99949948	    -19.82267768	      0.00000000	      0.00000000	      0.00000000	      0.00000000	      0.00000000	      0.00000000	      0.00000000	      0.00000000	      0.00000000	      0.00000000	      0.00000000	      0.00000000	     15.31985733	    -14.93609387	     -4.78294612	     -6.90402887
      0.60416667	     -5.61881519	      0.91638592	      5.09394827	     -0.02105197	      1.01242100	      0.35388604	     29.00635184	     -2.47370940	     -1.76704182	      1.13034314	     11.82972160	      0.89813500	      1.09092550	     -5.84823354	      1.57559224	      4.11270582	    -20.04714193	      0.00000000	      0.00000000	      0.00000000	      0.00000000	      0.00000000	      0.00000000	      0.00000000	      0.00000000	      0.00000000	      0.00000000	      0.00000000	      0.00000000	     15.36364613	    -14.86612798	     -4.69101113	     -6.91819709
      0.60833333	     -5.62460959	      0.85498218	      5.25624005	     -0.01490246	      1.01133293	      0.35394480	     29.07113793	     -2.44261639	     -1.59294824	      0.94594570	     11.72789392	      0.97910051	      1.11647937	     -6.05131816	      1.44409956	      4.21998910	    -20.31450306	      0.00000000	      0.00000000	      0.00000000	      0.00000000	      0.00000000	      0.00000000	      0.00000000	      0.00000000	      0.00000000	      0.00000000	      0.00000000	      0.00000000	     15.42844780	    -14.81678140	     -4.51114917	     -6.94202604
      0.61250000	     -5.62959558	      0.76558797	      5.43150091	     -0.00869797	      1.01025799	      0.35400354	     29.14608530	     -2.38599571	     -1.43375921	      0.68269159	     11.57421429	      1.04626584	      1.15099669	     -6.23644790	      1.27290254	      4.29812401	    -20.60976272	      0.00000000	      0.00000000	      0.00000000	      0.00000000	      0.00000000	      0.00000000	      0.00000000	      0.00000000	      0.00000000	      0.00000000	      0.00000000	      0.00000000	     15.48986944	    -14.79089905	     -4.28498333	     -6.97773901
      0.61666667	     -5.61623561	      0.62635170	      5.59128055	     -0.00257976	      1.00921273	      0.35401870	     29.28782485	     -2.27401872	     -1.32379715	      0.24434955	     11.30386710	      1.09022724	      1.22515985	     -6.39279575	      1.05928300	      4.35920862	    -20.98171837	      0.00000000	      0.00000000	      0.00000000	      0.00000000	      0.00000000	      0.00000000	      0.00000000	      0.00000000	      0.00000000	      0.00000000	      0.00000000	      0.00000000	     15.59175443	    -14.80883859	     -3.91110626	     -7.04666511
      0.62083333	     -5.61211573	      0.46593262	      5.73371746	      0.00366360	      1.00816904	      0.35408054	     29.46629692	     -2.13293276	     -1.28540003	     -0.29891031	     10.99183136	      1.09914421	      1.36122368	     -6.53535966	      0.82017788	      4.40689708	    -21.36867768	      0.00000000	      0.00000000	      0.00000000	      0.00000000	      0.00000000	      0.00000000	      0.00000000	      0.00000000	      0.00000000	      0.00000000	      0.00000000	      0.00000000	     15.66434262	    -14.83133127	     -3.54715252	     -7.12845602
      0.62500000	     -5.59606193	      0.34750450	      5.90329028	      0.01011233	      1.00725193	      0.35419390	     29.45714612	     -2.02906393	     -1.09522045	     -0.63074130	     10.81462530	      1.15226756	      1.40041238	     -6.73373904	      0.61519242	      4.50764064	    -21.68435381	      0.00000000	      0.00000000	      0.00000000	      0.00000000	      0.00000000	      0.00000000	      0.00000000	      0.00000000	      0.00000000	      0.00000000	      0.00000000	      0.00000000	     15.59490121	    -14.72991617	     -3.45941510	     -7.14295202
      0.62916667	     -5.55103554	      0.11786365	      5.99131951	      0.01627816	      1.00627999	      0.35428504	     29.74274181	     -1.79019507	     -1.08990083	     -1.48675023	     10.23991375	      1.08965918	      1.60285289	     -6.85208076	      0.30750417	      4.46218070	    -22.17739388	      0.00000000	      0.00000000	      0.00000000	      0.00000000	      0.00000000	      0.00000000	      0.00000000	      0.00000000	      0.00000000	      0.00000000	      0.00000000	      0.00000000	     15.69972374	    -14.84193761	     -2.91705397	     -7.19414059
      0.63333333	     -5.77612126	      0.00410297	      6.16263701	      0.02262456	      1.00482907	      0.35426912	     30.66513619	     -1.78636060	     -1.69537827	     -3.02383086	      9.87991894	      1.96010859	      5.94312189	     -6.66057415	      0.15396969	      4.57274921	    -22.73668534	      0.00000000	      0.00000000	      0.00000000	      0.00000000	      0.00000000	      0.00000000	      0.00000000	      0.00000000	      0.00000000	      0.00000000	      0.00000000	      0.00000000	     15.72277223	    -14.48122426	     -2.67747004	     -7.27777857
      0.63750000	     -5.66980213	     -0.19456151	      6.24211397	      0.02899612	      1.00406092	      0.35445323	     30.73677514	     -1.55658443	     -1.57767733	     -3.72082441	      9.34639359	      1.88278831	      5.96902279	     -6.86220679	     -0.13134925	      4.53450782	    -23.20659783	      0.00000000	      0.00000000	      0.00000000	      0.00000000	      0.00000000	      0.00000000	      0.00000000	      0.00000000	      0.00000000	      0.00000000	      0.00000000	      0.00000000	     15.69696736	    -14.56147167	     -2.31566217	     -7.26474577
      0.64166667	     -5.55698913	     -0.37499294	      6.31665406	      0.03537432	      1.00332472	      0.35462865	     30.79959008	     -1.34534579	     -1.44377027	     -4.44370096	      8.81415889	      1.82479695	      5.99449090	     -7.04213953	     -0.39264527	      4.50196745	    -23.73002642	      0.00000000	      0.00000000	      0.00000000	      0.00000000	      0.00000000	      0.00000000	      0.00000000	      0.00000000	      0.00000000	      0.00000000	      0.00000000	      0.00000000	     15.65640937	    -14.58205916	     -1.93637895	     -7.23212295
      0.64583333	     -5.46749923	     -0.63741951	      6.35853730	      0.04176701	      1.00256595	      0.35488725	     30.99820807	     -1.03478222	     -1.42703111	     -5.36444504	      8.19163659	      1.64986345	      6.07885170	     -7.16881840	     -0.73978434	      4.42318259	    -24.29627032	      0.00000000	      0.00000000	      0.00000000	      0.00000000	      0.00000000	      0.00000000	      0.00000000	      0.00000000	      0.00000000	      0.00000000	      0.00000000	      0.00000000	     15.60147403	    -14.70118545	     -1.53886392	     -7.16641548
      0.65000000	     -5.36516501	     -0.84220507	      6.40107515	      0.04814707	      1.00186634	      0.35513321	     31.14943786	     -0.78588925	     -1.36055220	     -6.26028742	      7.61177233	      1.52773380	      6.17334099	     -7.27203310	     -1.02036219	      4.33801479	    -24.93300753	      0.00000000	      0.00000000	      0.00000000	      0.00000000	      0.00000000	      0.00000000	      0.00000000	      0.00000000	      0.00000000	      0.00000000	      0.00000000	      0.00000000	     15.50791613	    -14.72343603	     -1.14030905	     -7.08988580
